<mxfile host="app.diagrams.net" agent="Mozilla/5.0 (Windows NT 10.0; Win64; x64) AppleWebKit/537.36 (KHTML, like Gecko) Chrome/131.0.0.0 Safari/537.36" version="24.8.9">
  <diagram name="Page-1" id="AoQ32iTvS0Ihpvby-6kD">
    <mxGraphModel dx="1020" dy="522" grid="0" gridSize="10" guides="1" tooltips="1" connect="1" arrows="1" fold="1" page="1" pageScale="1" pageWidth="827" pageHeight="1169" math="0" shadow="0">
      <root>
        <mxCell id="0" />
        <mxCell id="1" parent="0" />
        <mxCell id="0t-JrtF1ArZYssphSkrc-7" style="rounded=1;orthogonalLoop=1;jettySize=auto;html=1;exitX=0.25;exitY=0;exitDx=0;exitDy=0;entryX=0.5;entryY=1;entryDx=0;entryDy=0;edgeStyle=orthogonalEdgeStyle;curved=0;strokeWidth=1;strokeColor=default;endSize=6;endArrow=none;endFill=0;" edge="1" parent="1" source="0t-JrtF1ArZYssphSkrc-3">
          <mxGeometry relative="1" as="geometry">
            <mxPoint x="132.5" y="84" as="targetPoint" />
          </mxGeometry>
        </mxCell>
        <mxCell id="0t-JrtF1ArZYssphSkrc-8" style="edgeStyle=orthogonalEdgeStyle;curved=1;rounded=0;orthogonalLoop=1;jettySize=auto;html=1;exitX=0.75;exitY=0;exitDx=0;exitDy=0;entryX=0.5;entryY=1;entryDx=0;entryDy=0;endArrow=none;endFill=0;" edge="1" parent="1" source="0t-JrtF1ArZYssphSkrc-4">
          <mxGeometry relative="1" as="geometry">
            <mxPoint x="225" y="83" as="targetPoint" />
          </mxGeometry>
        </mxCell>
        <mxCell id="0t-JrtF1ArZYssphSkrc-9" style="edgeStyle=orthogonalEdgeStyle;curved=0;rounded=1;orthogonalLoop=1;jettySize=auto;html=1;exitX=0;exitY=0.25;exitDx=0;exitDy=0;entryX=1;entryY=0.5;entryDx=0;entryDy=0;endArrow=none;endFill=0;" edge="1" parent="1" source="0t-JrtF1ArZYssphSkrc-1">
          <mxGeometry relative="1" as="geometry">
            <mxPoint x="73" y="108" as="targetPoint" />
          </mxGeometry>
        </mxCell>
        <mxCell id="0t-JrtF1ArZYssphSkrc-11" style="edgeStyle=orthogonalEdgeStyle;curved=0;rounded=1;orthogonalLoop=1;jettySize=auto;html=1;exitX=0;exitY=0.5;exitDx=0;exitDy=0;entryX=1;entryY=0.5;entryDx=0;entryDy=0;endArrow=none;endFill=0;" edge="1" parent="1" source="0t-JrtF1ArZYssphSkrc-1" target="0t-JrtF1ArZYssphSkrc-5">
          <mxGeometry relative="1" as="geometry" />
        </mxCell>
        <mxCell id="0t-JrtF1ArZYssphSkrc-1" value="Musician" style="rounded=0;whiteSpace=wrap;html=1;" vertex="1" parent="1">
          <mxGeometry x="138" y="130" width="120" height="37" as="geometry" />
        </mxCell>
        <mxCell id="0t-JrtF1ArZYssphSkrc-2" value="Name" style="ellipse;whiteSpace=wrap;html=1;" vertex="1" parent="1">
          <mxGeometry x="17" y="91" width="58" height="30" as="geometry" />
        </mxCell>
        <mxCell id="0t-JrtF1ArZYssphSkrc-5" value="&lt;u&gt;ID&lt;/u&gt;" style="ellipse;whiteSpace=wrap;html=1;" vertex="1" parent="1">
          <mxGeometry x="17" y="140" width="58" height="30" as="geometry" />
        </mxCell>
        <mxCell id="0t-JrtF1ArZYssphSkrc-12" style="edgeStyle=orthogonalEdgeStyle;curved=1;rounded=0;orthogonalLoop=1;jettySize=auto;html=1;exitX=0;exitY=0;exitDx=0;exitDy=0;entryX=0;entryY=1;entryDx=0;entryDy=0;" edge="1" parent="1" source="0t-JrtF1ArZYssphSkrc-4" target="0t-JrtF1ArZYssphSkrc-4">
          <mxGeometry relative="1" as="geometry" />
        </mxCell>
        <mxCell id="0t-JrtF1ArZYssphSkrc-13" value="" style="edgeStyle=orthogonalEdgeStyle;curved=0;rounded=1;orthogonalLoop=1;jettySize=auto;html=1;exitX=0.75;exitY=0;exitDx=0;exitDy=0;entryX=0.5;entryY=1;entryDx=0;entryDy=0;endArrow=none;endFill=0;" edge="1" parent="1" source="0t-JrtF1ArZYssphSkrc-1" target="0t-JrtF1ArZYssphSkrc-4">
          <mxGeometry relative="1" as="geometry">
            <mxPoint x="202" y="128" as="sourcePoint" />
            <mxPoint x="225" y="83" as="targetPoint" />
          </mxGeometry>
        </mxCell>
        <mxCell id="0t-JrtF1ArZYssphSkrc-17" style="edgeStyle=orthogonalEdgeStyle;curved=0;rounded=1;orthogonalLoop=1;jettySize=auto;html=1;exitX=0;exitY=0;exitDx=0;exitDy=0;entryX=0.5;entryY=1;entryDx=0;entryDy=0;endArrow=none;endFill=0;" edge="1" parent="1" source="0t-JrtF1ArZYssphSkrc-4" target="0t-JrtF1ArZYssphSkrc-15">
          <mxGeometry relative="1" as="geometry" />
        </mxCell>
        <mxCell id="0t-JrtF1ArZYssphSkrc-4" value="Address" style="ellipse;whiteSpace=wrap;html=1;" vertex="1" parent="1">
          <mxGeometry x="184" y="77" width="58" height="30" as="geometry" />
        </mxCell>
        <mxCell id="0t-JrtF1ArZYssphSkrc-14" value="Street" style="ellipse;whiteSpace=wrap;html=1;" vertex="1" parent="1">
          <mxGeometry x="229" y="34" width="58" height="30" as="geometry" />
        </mxCell>
        <mxCell id="0t-JrtF1ArZYssphSkrc-15" value="City" style="ellipse;whiteSpace=wrap;html=1;" vertex="1" parent="1">
          <mxGeometry x="154" y="34" width="58" height="30" as="geometry" />
        </mxCell>
        <mxCell id="0t-JrtF1ArZYssphSkrc-16" style="edgeStyle=orthogonalEdgeStyle;curved=0;rounded=1;orthogonalLoop=1;jettySize=auto;html=1;exitX=1;exitY=0;exitDx=0;exitDy=0;entryX=0.283;entryY=0.913;entryDx=0;entryDy=0;entryPerimeter=0;endArrow=none;endFill=0;" edge="1" parent="1" source="0t-JrtF1ArZYssphSkrc-4" target="0t-JrtF1ArZYssphSkrc-14">
          <mxGeometry relative="1" as="geometry" />
        </mxCell>
        <mxCell id="0t-JrtF1ArZYssphSkrc-22" style="edgeStyle=orthogonalEdgeStyle;curved=0;rounded=1;orthogonalLoop=1;jettySize=auto;html=1;exitX=0.75;exitY=0;exitDx=0;exitDy=0;entryX=0;entryY=1;entryDx=0;entryDy=0;endArrow=none;endFill=0;" edge="1" parent="1" source="0t-JrtF1ArZYssphSkrc-18" target="0t-JrtF1ArZYssphSkrc-21">
          <mxGeometry relative="1" as="geometry" />
        </mxCell>
        <mxCell id="0t-JrtF1ArZYssphSkrc-23" style="edgeStyle=orthogonalEdgeStyle;curved=0;rounded=1;orthogonalLoop=1;jettySize=auto;html=1;exitX=0.5;exitY=0;exitDx=0;exitDy=0;entryX=0.5;entryY=1;entryDx=0;entryDy=0;endArrow=none;endFill=0;" edge="1" parent="1" source="0t-JrtF1ArZYssphSkrc-18" target="0t-JrtF1ArZYssphSkrc-20">
          <mxGeometry relative="1" as="geometry" />
        </mxCell>
        <mxCell id="0t-JrtF1ArZYssphSkrc-24" style="edgeStyle=orthogonalEdgeStyle;curved=0;rounded=1;orthogonalLoop=1;jettySize=auto;html=1;exitX=0.25;exitY=0;exitDx=0;exitDy=0;entryX=1;entryY=1;entryDx=0;entryDy=0;endArrow=none;endFill=0;" edge="1" parent="1" source="0t-JrtF1ArZYssphSkrc-18" target="0t-JrtF1ArZYssphSkrc-19">
          <mxGeometry relative="1" as="geometry" />
        </mxCell>
        <mxCell id="0t-JrtF1ArZYssphSkrc-18" value="Album" style="rounded=0;whiteSpace=wrap;html=1;" vertex="1" parent="1">
          <mxGeometry x="606" y="128" width="120" height="37" as="geometry" />
        </mxCell>
        <mxCell id="0t-JrtF1ArZYssphSkrc-19" value="&lt;u&gt;Title&lt;/u&gt;" style="ellipse;whiteSpace=wrap;html=1;" vertex="1" parent="1">
          <mxGeometry x="542" y="71" width="58" height="30" as="geometry" />
        </mxCell>
        <mxCell id="0t-JrtF1ArZYssphSkrc-20" value="Copyright" style="ellipse;whiteSpace=wrap;html=1;" vertex="1" parent="1">
          <mxGeometry x="629" y="64" width="58" height="30" as="geometry" />
        </mxCell>
        <mxCell id="0t-JrtF1ArZYssphSkrc-21" value="Identifier" style="ellipse;whiteSpace=wrap;html=1;" vertex="1" parent="1">
          <mxGeometry x="733" y="75" width="58" height="30" as="geometry" />
        </mxCell>
        <mxCell id="0t-JrtF1ArZYssphSkrc-30" style="edgeStyle=orthogonalEdgeStyle;curved=0;rounded=1;orthogonalLoop=1;jettySize=auto;html=1;exitX=0.25;exitY=1;exitDx=0;exitDy=0;entryX=0.5;entryY=0;entryDx=0;entryDy=0;endArrow=none;endFill=0;" edge="1" parent="1" source="0t-JrtF1ArZYssphSkrc-26" target="0t-JrtF1ArZYssphSkrc-27">
          <mxGeometry relative="1" as="geometry" />
        </mxCell>
        <mxCell id="0t-JrtF1ArZYssphSkrc-32" style="edgeStyle=orthogonalEdgeStyle;curved=0;rounded=1;orthogonalLoop=1;jettySize=auto;html=1;exitX=0.75;exitY=1;exitDx=0;exitDy=0;entryX=0.5;entryY=0;entryDx=0;entryDy=0;endArrow=none;endFill=0;" edge="1" parent="1" source="0t-JrtF1ArZYssphSkrc-26" target="0t-JrtF1ArZYssphSkrc-28">
          <mxGeometry relative="1" as="geometry" />
        </mxCell>
        <mxCell id="0t-JrtF1ArZYssphSkrc-26" value="Instrument" style="rounded=0;whiteSpace=wrap;html=1;" vertex="1" parent="1">
          <mxGeometry x="138" y="300" width="120" height="37" as="geometry" />
        </mxCell>
        <mxCell id="0t-JrtF1ArZYssphSkrc-27" value="&lt;u&gt;Name&lt;/u&gt;" style="ellipse;whiteSpace=wrap;html=1;" vertex="1" parent="1">
          <mxGeometry x="138" y="370" width="58" height="30" as="geometry" />
        </mxCell>
        <mxCell id="0t-JrtF1ArZYssphSkrc-28" value="Musical Key" style="ellipse;whiteSpace=wrap;html=1;" vertex="1" parent="1">
          <mxGeometry x="196" y="390" width="64" height="32" as="geometry" />
        </mxCell>
        <mxCell id="0t-JrtF1ArZYssphSkrc-37" style="edgeStyle=orthogonalEdgeStyle;curved=0;rounded=1;orthogonalLoop=1;jettySize=auto;html=1;exitX=0.25;exitY=1;exitDx=0;exitDy=0;entryX=0.5;entryY=0;entryDx=0;entryDy=0;endArrow=none;endFill=0;" edge="1" parent="1" source="0t-JrtF1ArZYssphSkrc-34" target="0t-JrtF1ArZYssphSkrc-35">
          <mxGeometry relative="1" as="geometry" />
        </mxCell>
        <mxCell id="0t-JrtF1ArZYssphSkrc-39" style="edgeStyle=orthogonalEdgeStyle;curved=0;rounded=1;orthogonalLoop=1;jettySize=auto;html=1;exitX=0.75;exitY=1;exitDx=0;exitDy=0;endArrow=none;endFill=0;" edge="1" parent="1" source="0t-JrtF1ArZYssphSkrc-34" target="0t-JrtF1ArZYssphSkrc-36">
          <mxGeometry relative="1" as="geometry" />
        </mxCell>
        <mxCell id="0t-JrtF1ArZYssphSkrc-34" value="Song" style="rounded=0;whiteSpace=wrap;html=1;" vertex="1" parent="1">
          <mxGeometry x="379" y="257" width="120" height="37" as="geometry" />
        </mxCell>
        <mxCell id="0t-JrtF1ArZYssphSkrc-35" value="&lt;u&gt;Title&lt;/u&gt;" style="ellipse;whiteSpace=wrap;html=1;" vertex="1" parent="1">
          <mxGeometry x="379" y="330" width="58" height="30" as="geometry" />
        </mxCell>
        <mxCell id="0t-JrtF1ArZYssphSkrc-36" value="Author" style="ellipse;whiteSpace=wrap;html=1;" vertex="1" parent="1">
          <mxGeometry x="441" y="333" width="58" height="30" as="geometry" />
        </mxCell>
        <mxCell id="0t-JrtF1ArZYssphSkrc-40" value="Play" style="rhombus;whiteSpace=wrap;html=1;" vertex="1" parent="1">
          <mxGeometry x="158" y="204" width="62" height="66" as="geometry" />
        </mxCell>
        <mxCell id="0t-JrtF1ArZYssphSkrc-52" style="edgeStyle=orthogonalEdgeStyle;curved=0;rounded=1;orthogonalLoop=1;jettySize=auto;html=1;exitX=1;exitY=0.5;exitDx=0;exitDy=0;entryX=0;entryY=0.5;entryDx=0;entryDy=0;endArrow=ERoneToMany;endFill=0;" edge="1" parent="1" source="0t-JrtF1ArZYssphSkrc-42" target="0t-JrtF1ArZYssphSkrc-18">
          <mxGeometry relative="1" as="geometry" />
        </mxCell>
        <mxCell id="0t-JrtF1ArZYssphSkrc-42" value="Produce" style="rhombus;whiteSpace=wrap;html=1;" vertex="1" parent="1">
          <mxGeometry x="466" y="99" width="62" height="66" as="geometry" />
        </mxCell>
        <mxCell id="0t-JrtF1ArZYssphSkrc-47" style="edgeStyle=orthogonalEdgeStyle;curved=0;rounded=1;orthogonalLoop=1;jettySize=auto;html=1;exitX=0;exitY=0.5;exitDx=0;exitDy=0;entryX=1;entryY=0.5;entryDx=0;entryDy=0;endArrow=ERzeroToMany;endFill=0;" edge="1" parent="1" source="0t-JrtF1ArZYssphSkrc-43" target="0t-JrtF1ArZYssphSkrc-1">
          <mxGeometry relative="1" as="geometry" />
        </mxCell>
        <mxCell id="0t-JrtF1ArZYssphSkrc-43" value="Perform" style="rhombus;whiteSpace=wrap;html=1;" vertex="1" parent="1">
          <mxGeometry x="390" y="155" width="62" height="66" as="geometry" />
        </mxCell>
        <mxCell id="0t-JrtF1ArZYssphSkrc-57" style="edgeStyle=orthogonalEdgeStyle;curved=0;rounded=1;orthogonalLoop=1;jettySize=auto;html=1;exitX=0;exitY=0.5;exitDx=0;exitDy=0;endArrow=ERoneToMany;endFill=0;" edge="1" parent="1" source="0t-JrtF1ArZYssphSkrc-44">
          <mxGeometry relative="1" as="geometry">
            <mxPoint x="500.8000030517578" y="277.20001220703125" as="targetPoint" />
          </mxGeometry>
        </mxCell>
        <mxCell id="0t-JrtF1ArZYssphSkrc-63" style="edgeStyle=orthogonalEdgeStyle;curved=0;rounded=1;orthogonalLoop=1;jettySize=auto;html=1;exitX=0.5;exitY=0;exitDx=0;exitDy=0;entryX=0.5;entryY=1;entryDx=0;entryDy=0;endArrow=circle;endFill=0;" edge="1" parent="1" source="0t-JrtF1ArZYssphSkrc-44" target="0t-JrtF1ArZYssphSkrc-18">
          <mxGeometry relative="1" as="geometry" />
        </mxCell>
        <mxCell id="0t-JrtF1ArZYssphSkrc-44" value="Has" style="rhombus;whiteSpace=wrap;html=1;" vertex="1" parent="1">
          <mxGeometry x="635" y="215" width="62" height="66" as="geometry" />
        </mxCell>
        <mxCell id="0t-JrtF1ArZYssphSkrc-45" style="edgeStyle=orthogonalEdgeStyle;curved=0;rounded=1;orthogonalLoop=1;jettySize=auto;html=1;exitX=0.5;exitY=0;exitDx=0;exitDy=0;entryX=0.427;entryY=1.049;entryDx=0;entryDy=0;entryPerimeter=0;endArrow=ERoneToMany;endFill=0;" edge="1" parent="1" source="0t-JrtF1ArZYssphSkrc-40" target="0t-JrtF1ArZYssphSkrc-1">
          <mxGeometry relative="1" as="geometry" />
        </mxCell>
        <mxCell id="0t-JrtF1ArZYssphSkrc-46" style="edgeStyle=orthogonalEdgeStyle;curved=0;rounded=1;orthogonalLoop=1;jettySize=auto;html=1;exitX=0.5;exitY=1;exitDx=0;exitDy=0;entryX=0.41;entryY=0.043;entryDx=0;entryDy=0;entryPerimeter=0;endArrow=ERoneToMany;endFill=0;" edge="1" parent="1" source="0t-JrtF1ArZYssphSkrc-40" target="0t-JrtF1ArZYssphSkrc-26">
          <mxGeometry relative="1" as="geometry" />
        </mxCell>
        <mxCell id="0t-JrtF1ArZYssphSkrc-49" style="edgeStyle=orthogonalEdgeStyle;curved=0;rounded=1;orthogonalLoop=1;jettySize=auto;html=1;exitX=0.5;exitY=1;exitDx=0;exitDy=0;entryX=0.342;entryY=0;entryDx=0;entryDy=0;entryPerimeter=0;endArrow=ERoneToMany;endFill=0;" edge="1" parent="1" source="0t-JrtF1ArZYssphSkrc-43" target="0t-JrtF1ArZYssphSkrc-34">
          <mxGeometry relative="1" as="geometry" />
        </mxCell>
        <mxCell id="0t-JrtF1ArZYssphSkrc-51" style="edgeStyle=orthogonalEdgeStyle;curved=0;rounded=1;orthogonalLoop=1;jettySize=auto;html=1;exitX=0;exitY=0.5;exitDx=0;exitDy=0;entryX=0.837;entryY=0;entryDx=0;entryDy=0;entryPerimeter=0;endArrow=circle;endFill=0;" edge="1" parent="1" source="0t-JrtF1ArZYssphSkrc-42" target="0t-JrtF1ArZYssphSkrc-1">
          <mxGeometry relative="1" as="geometry" />
        </mxCell>
        <mxCell id="0t-JrtF1ArZYssphSkrc-64" value="" style="rounded=1;orthogonalLoop=1;jettySize=auto;html=1;exitX=0.25;exitY=0;exitDx=0;exitDy=0;entryX=0.5;entryY=1;entryDx=0;entryDy=0;edgeStyle=orthogonalEdgeStyle;curved=0;strokeWidth=1;strokeColor=default;endSize=6;endArrow=none;endFill=0;" edge="1" parent="1" source="0t-JrtF1ArZYssphSkrc-1" target="0t-JrtF1ArZYssphSkrc-3">
          <mxGeometry relative="1" as="geometry">
            <mxPoint x="168" y="130" as="sourcePoint" />
            <mxPoint x="132.5" y="84" as="targetPoint" />
          </mxGeometry>
        </mxCell>
        <mxCell id="0t-JrtF1ArZYssphSkrc-3" value="Phone&lt;div&gt;Number&lt;/div&gt;" style="ellipse;whiteSpace=wrap;html=1;" vertex="1" parent="1">
          <mxGeometry x="107" y="71" width="65" height="31" as="geometry" />
        </mxCell>
      </root>
    </mxGraphModel>
  </diagram>
</mxfile>
